<svg width="32" height="34" viewBox="0 0 32 34" fill="none" xmlns="http://www.w3.org/2000/svg">
<path d="M11.2593 30.8518C12.5684 30.8518 13.6297 29.7243 13.6297 28.3333C13.6297 26.9424 12.5684 25.8149 11.2593 25.8149C9.95016 25.8149 8.88892 26.9424 8.88892 28.3333C8.88892 29.7243 9.95016 30.8518 11.2593 30.8518Z" stroke="#FF7E73" stroke-width="1.8" stroke-linecap="round" stroke-linejoin="round"/>
<path d="M25.4814 30.8518C26.7905 30.8518 27.8519 29.7243 27.8519 28.3333C27.8519 26.9424 26.7905 25.8149 25.4814 25.8149C24.1724 25.8149 23.1111 26.9424 23.1111 28.3333C23.1111 29.7243 24.1724 30.8518 25.4814 30.8518Z" stroke="#FF7E73" stroke-width="1.8" stroke-linecap="round" stroke-linejoin="round"/>
<path d="M8.49782 9.44442H29.0372L27.0461 20.0096C26.9376 20.5895 26.6407 21.1102 26.2075 21.4808C25.7741 21.8514 25.2318 22.0484 24.6756 22.0371H12.1482C11.5694 22.0422 11.0089 21.8223 10.5723 21.4187C10.1356 21.015 9.85304 20.4557 9.77782 19.846L7.97635 5.33924C7.90163 4.73384 7.62248 4.17788 7.1908 3.77483C6.75914 3.37176 6.20435 3.14906 5.62968 3.14813H2.96301" stroke="#FF7E73" stroke-width="1.8" stroke-linecap="round" stroke-linejoin="round"/>
</svg>
