<svg width="256" height="256" viewBox="0 0 256 256" fill="none" xmlns="http://www.w3.org/2000/svg">
<path d="M194.853 73.8315C202.802 73.8315 209.245 67.3876 209.245 59.4387C209.245 51.4898 202.802 45.0459 194.853 45.0459C186.904 45.0459 180.46 51.4898 180.46 59.4387C180.46 67.3876 186.904 73.8315 194.853 73.8315Z" fill="#FF7E73"/>
<path d="M176.95 254.307H78.7659C36.1101 254.307 1.40662 219.603 1.40662 176.95V78.7659C1.40662 36.1101 36.1101 1.40659 78.7659 1.40659H176.95C219.603 1.40659 254.307 36.1101 254.307 78.7659V176.95C254.307 219.603 219.603 254.307 176.95 254.307ZM78.7659 18.2666C45.4056 18.2666 18.2666 45.4056 18.2666 78.7659V176.95C18.2666 210.308 45.4056 237.447 78.7659 237.447H176.95C210.308 237.447 237.447 210.308 237.447 176.95V78.7659C237.447 45.4056 210.308 18.2666 176.95 18.2666H78.7659Z" fill="#FF7E73"/>
<path d="M128.582 190.413C94.4879 190.413 66.7532 162.675 66.7532 128.582C66.7532 94.4878 94.4907 66.7531 128.582 66.7531C162.673 66.7531 190.41 94.4907 190.41 128.582C190.41 162.672 162.675 190.413 128.582 190.413ZM128.582 83.6103C103.786 83.6103 83.6132 103.783 83.6132 128.579C83.6132 153.374 103.786 173.55 128.582 173.55C153.38 173.55 173.55 153.374 173.55 128.579C173.55 103.783 153.38 83.6103 128.582 83.6103Z" fill="#FF7E73"/>
</svg>
