<svg width="241" height="254" viewBox="0 0 241 254" fill="none" xmlns="http://www.w3.org/2000/svg">
<g clip-path="url(#clip0_6_2)">
<path d="M213.705 25.0728C207.419 19.2729 182.022 0.836516 125.454 0.586426C125.454 0.586426 58.7444 -3.43749 26.2242 26.3935C8.1222 44.5011 1.75474 70.9938 1.08315 103.84C0.411563 136.686 -0.459538 198.245 58.8792 214.933H58.9354L58.8961 240.403C58.8961 240.403 58.5167 250.713 65.3057 252.818C73.5193 255.369 78.3385 247.532 86.1784 239.082C90.4833 234.446 96.4264 227.632 100.903 222.425C141.485 225.842 172.695 218.033 176.239 216.881C184.433 214.225 230.798 208.282 238.337 146.732C246.124 83.2904 234.574 43.1607 213.705 25.0728ZM220.583 142.182C214.219 193.574 176.613 196.806 169.68 199.029C166.733 199.978 139.318 206.798 104.848 204.547C104.848 204.547 79.1618 235.533 71.1393 243.592C69.886 244.851 68.4136 245.36 67.4301 245.11C66.0475 244.773 65.6682 243.137 65.6851 240.746C65.7075 237.329 65.9042 198.424 65.9042 198.424C15.712 184.487 18.6372 132.094 19.2077 104.66C19.7781 77.2264 24.9316 54.752 40.2405 39.6342C67.7476 14.7207 124.411 18.444 124.411 18.444C172.263 18.6519 195.192 33.0616 200.512 37.8892C218.167 53.0042 227.162 89.1773 220.583 142.165V142.182Z" fill="#7686A6"/>
<path d="M148.74 105.605C147.046 105.605 145.632 104.275 145.548 102.564C145.009 91.6922 139.897 86.3757 129.458 85.8334C127.693 85.7407 126.339 84.2373 126.429 82.4726C126.522 80.708 128.019 79.3479 129.79 79.4435C143.575 80.1628 151.233 88.0477 151.938 102.249C152.025 104.014 150.665 105.515 148.9 105.602C148.847 105.605 148.794 105.605 148.74 105.605Z" fill="#7686A6"/>
<path d="M165.156 111.109C165.134 111.109 165.108 111.109 165.086 111.109C163.318 111.07 161.919 109.609 161.956 107.841C162.192 96.9076 159.07 88.0533 152.407 80.7726C145.753 73.5087 136.635 69.5466 124.535 68.6615C122.773 68.5322 121.449 66.998 121.579 65.2361C121.708 63.4742 123.248 62.1479 125.004 62.28C138.619 63.2775 149.429 68.0461 157.131 76.4508C164.85 84.8864 168.629 95.4942 168.357 107.979C168.315 109.721 166.89 111.109 165.156 111.109Z" fill="#7686A6"/>
<path d="M181.96 117.682C180.204 117.682 178.774 116.266 178.762 114.507C178.616 95.2047 172.822 79.8425 161.545 68.8498C150.246 57.8346 135.969 52.1893 119.106 52.0741C117.338 52.0628 115.917 50.6185 115.928 48.8538C115.939 47.0947 117.369 45.6757 119.126 45.6757C119.134 45.6757 119.14 45.6757 119.148 45.6757C137.719 45.8049 153.486 52.06 166.008 64.2695C178.554 76.4986 184.995 93.3867 185.155 114.459C185.169 116.226 183.747 117.668 181.98 117.682C181.98 117.682 181.968 117.682 181.96 117.682Z" fill="#7686A6"/>
<path d="M130.256 145.256C130.256 145.256 134.752 145.636 137.174 142.654L141.895 136.714C144.171 133.769 149.668 131.889 155.049 134.888C159.081 137.186 162.995 139.687 166.78 142.379C170.352 145.006 177.664 151.107 177.689 151.107C181.173 154.049 181.977 158.368 179.605 162.92C179.605 162.945 179.586 162.993 179.586 163.016C176.972 167.545 173.656 171.628 169.759 175.116C169.714 175.138 169.714 175.16 169.672 175.183C166.286 178.013 162.962 179.62 159.694 180.008C159.213 180.092 158.724 180.123 158.235 180.098C156.794 180.112 155.361 179.89 153.992 179.446L153.885 179.291C148.853 177.872 140.451 174.32 126.457 166.601C118.359 162.187 110.651 157.095 103.412 151.379C99.7844 148.516 96.3225 145.448 93.0488 142.188L92.7004 141.839L92.352 141.491L92.0035 141.143C91.8855 141.027 91.7731 140.912 91.6551 140.794C88.3955 137.518 85.327 134.059 82.4636 130.431C76.748 123.195 71.6563 115.487 67.2418 107.392C59.5227 93.3951 55.9709 85.0016 54.5518 79.9605L54.3973 79.8537C53.9533 78.4852 53.7341 77.0521 53.7482 75.6106C53.7229 75.1245 53.751 74.6355 53.8353 74.1522C54.2427 70.8898 55.8529 67.5628 58.6657 64.1683C58.6882 64.1261 58.7106 64.1261 58.7331 64.0812C62.2175 60.1837 66.3033 56.8679 70.833 54.2602C70.8555 54.2602 70.9004 54.2377 70.9285 54.2377C75.4835 51.8661 79.8025 52.6698 82.7389 56.1345C82.7614 56.157 88.8535 63.4714 91.4668 67.0429C94.1588 70.8308 96.6597 74.7479 98.9583 78.7859C101.957 84.1642 100.077 89.669 97.1318 91.9395L91.1914 96.6603C88.1932 99.0825 88.5894 103.579 88.5894 103.579C88.5894 103.579 97.3875 136.866 130.256 145.256Z" fill="#7686A6"/>
</g>
<defs>
<clipPath id="clip0_6_2">
<rect width="241" height="254" fill="white"/>
</clipPath>
</defs>
</svg>
