<?xml version="1.0" standalone="no"?>
<!DOCTYPE svg PUBLIC "-//W3C//DTD SVG 20010904//EN"
 "http://www.w3.org/TR/2001/REC-SVG-20010904/DTD/svg10.dtd">
<svg version="1.0" xmlns="http://www.w3.org/2000/svg"
 width="197.000000pt" height="197.000000pt" viewBox="0 0 197.000000 197.000000"
 preserveAspectRatio="xMidYMid meet">
<metadata>
Created by potrace 1.14, written by Peter Selinger 2001-2017
</metadata>
<g transform="translate(0.000000,197.000000) scale(0.100000,-0.100000)"
fill="#000000" stroke="none">
<path d="M874 1800 c-73 -29 -128 -81 -165 -155 -57 -115 -50 -218 20 -292
l21 -22 -80 -7 -80 -7 0 -321 0 -320 -56 -57 -55 -56 150 -154 150 -154 98 98
c54 53 104 97 110 97 6 0 52 -44 102 -97 l91 -98 152 152 153 153 -63 63 -62
63 0 316 0 316 -75 7 -76 7 30 34 c102 116 28 345 -137 426 -64 30 -163 34
-228 8z m54 -293 c4 -29 -29 -58 -57 -50 -24 6 -40 42 -31 67 16 46 82 33 88
-17z m190 4 c5 -30 -15 -51 -49 -51 -52 0 -64 71 -16 90 28 10 61 -9 65 -39z
m-220 -276 l81 -36 63 27 c121 51 108 55 108 -40 l0 -83 -85 30 -85 30 -73
-27 c-39 -14 -78 -26 -84 -26 -9 0 -13 23 -13 80 0 44 1 80 3 80 2 0 40 -16
85 -35z m122 -260 c0 -33 -2 -35 -35 -35 -33 0 -35 2 -35 35 0 33 2 35 35 35
33 0 35 -2 35 -35z m0 -145 c0 -39 -1 -40 -35 -40 -34 0 -35 1 -35 40 0 39 1
40 35 40 34 0 35 -1 35 -40z"/>
<path d="M419 1297 c-128 -68 -148 -256 -38 -351 38 -32 113 -61 131 -50 4 3
8 99 8 215 l0 209 -28 0 c-16 0 -49 -10 -73 -23z"/>
<path d="M1440 1104 l0 -216 33 7 c123 26 200 151 167 273 -20 77 -107 152
-175 152 l-25 0 0 -216z"/>
<path d="M401 474 c-33 -48 -40 -137 -16 -199 32 -85 135 -145 224 -130 43 7
106 44 106 61 0 11 -274 304 -284 304 -3 0 -17 -16 -30 -36z"/>
<path d="M1377 354 c-164 -160 -163 -158 -82 -195 138 -63 294 41 295 196 0
50 -33 136 -55 142 -5 1 -77 -63 -158 -143z"/>
</g>
</svg>
