<svg width="84" height="90" viewBox="0 0 84 90" fill="none" xmlns="http://www.w3.org/2000/svg">
<g filter="url(#filter0_d_13_37)">
<rect x="28.9614" y="21.2843" width="36.8994" height="44.1166" fill="#5A5454"/>
<path d="M61.5197 15.0925C61.5197 23.4279 49.7625 26.7021 47.592 28.4436C45.0596 26.7021 33.3025 23.4279 33.3025 15.0925C33.3025 6.75715 39.6191 0 47.4111 0C55.203 0 61.5197 6.75715 61.5197 15.0925Z" fill="#5A5454"/>
<ellipse cx="51.9331" cy="12.1901" rx="2.35143" ry="2.51542" fill="white"/>
<ellipse cx="42.8891" cy="12.1901" rx="2.35143" ry="2.51542" fill="white"/>
<path d="M39.4524 23.9932L47.592 27.6419L55.7316 23.9932V32.5069L47.4585 29.4663L39.4524 32.5069V23.9932Z" fill="white"/>
<rect width="20.9594" height="20.9942" transform="matrix(0.691814 -0.722076 0.673886 0.738835 23.535 59.6379)" fill="#5A5454"/>
<rect width="20.9594" height="20.9942" transform="matrix(0.691814 -0.722076 0.673886 0.738835 43.07 59.6379)" fill="#5A5454"/>
<rect x="45.9641" y="37.0161" width="3.61759" height="3.86987" fill="white"/>
<rect x="45.9641" y="44.3689" width="3.61759" height="3.86987" fill="white"/>
<path d="M35.3118 77.7409C31.3007 81.9124 24.8878 81.8156 20.9883 77.5248C17.0888 73.2339 17.1792 66.3739 21.1903 62.2024C21.1903 62.2024 24.7298 66.097 28.6294 70.3878C32.5289 74.6787 35.3118 77.7409 35.3118 77.7409Z" fill="#5A5454"/>
<path d="M69.4784 21.2843C75.0727 21.2843 79.6077 26.1356 79.6077 32.1199C79.6077 38.1043 75.0727 42.9556 69.4784 42.9556C69.4784 42.9556 69.4784 37.5238 69.4784 31.5395C69.4784 25.5551 69.4784 21.2843 69.4784 21.2843Z" fill="#5A5454"/>
<path d="M25.3438 42.9556C19.7496 42.9556 15.2145 38.1043 15.2145 32.12C15.2145 26.1356 19.7496 21.2843 25.3438 21.2843C25.3438 21.2843 25.3438 26.7161 25.3438 32.7004C25.3438 38.6848 25.3438 42.9556 25.3438 42.9556Z" fill="#5A5454"/>
<path d="M74.009 62.692C77.87 67.0225 77.7183 73.8814 73.6701 78.0116C69.6219 82.1419 63.2102 81.9796 59.3491 77.6491C59.3491 77.6491 63.0235 73.9002 67.0717 69.7699C71.1199 65.6396 74.009 62.692 74.009 62.692Z" fill="#5A5454"/>
</g>
<defs>
<filter id="filter0_d_13_37" x="0" y="0" width="83.6077" height="89.0062" filterUnits="userSpaceOnUse" color-interpolation-filters="sRGB">
<feFlood flood-opacity="0" result="BackgroundImageFix"/>
<feColorMatrix in="SourceAlpha" type="matrix" values="0 0 0 0 0 0 0 0 0 0 0 0 0 0 0 0 0 0 127 0" result="hardAlpha"/>
<feOffset dy="4"/>
<feGaussianBlur stdDeviation="2"/>
<feComposite in2="hardAlpha" operator="out"/>
<feColorMatrix type="matrix" values="0 0 0 0 0 0 0 0 0 0 0 0 0 0 0 0 0 0 0.25 0"/>
<feBlend mode="normal" in2="BackgroundImageFix" result="effect1_dropShadow_13_37"/>
<feBlend mode="normal" in="SourceGraphic" in2="effect1_dropShadow_13_37" result="shape"/>
</filter>
</defs>
</svg>
